<?xml version="1.0" encoding="UTF-8"?> <svg xmlns="http://www.w3.org/2000/svg" xmlns:xlink="http://www.w3.org/1999/xlink" id="Groupe_110" data-name="Groupe 110" width="209.915" height="210.33" viewBox="0 0 209.915 210.33"><defs><clipPath id="clip-path"><rect id="Rectangle_41" data-name="Rectangle 41" width="209.915" height="210.33" fill="none"></rect></clipPath></defs><path id="Tracé_208" data-name="Tracé 208" d="M111.678,0l-.147,17.939,11.841.1.021-2.619-8.818-.072L114.7.025Z" transform="translate(-12.932 0)" fill="#fff"></path><path id="Tracé_209" data-name="Tracé 209" d="M127.219,3.693l.977.105-1.4,3.4,1.553.167L130.1,4,130.436.87,127.554.562Z" transform="translate(-14.701 -0.065)" fill="#fff"></path><g id="Groupe_109" data-name="Groupe 109"><g id="Groupe_108" data-name="Groupe 108" clip-path="url(#clip-path)"><path id="Tracé_210" data-name="Tracé 210" d="M137.952,8.8a4.158,4.158,0,0,1,1.873-.969,4.758,4.758,0,0,1,2.117.016A4.423,4.423,0,0,1,145,9.912a5.629,5.629,0,0,1,.319,4.1l-1.737,7.64-2.8-.637,1.682-7.4q.709-3.12-1.82-3.7a2.643,2.643,0,0,0-2.264.468,4.054,4.054,0,0,0-1.4,2.472L135.4,19.8l-2.8-.637,3.98-17.492,2.8.637L137.9,8.789Z" transform="translate(-15.375 -0.193)" fill="#fff"></path><path id="Tracé_211" data-name="Tracé 211" d="M149.446,23.067a5.648,5.648,0,0,1,.321-4.1l2.9-7.277,2.668,1.064-2.811,7.043q-1.186,2.972,1.224,3.934a2.64,2.64,0,0,0,2.308-.11,4.057,4.057,0,0,0,1.77-2.224l2.634-6.6,2.667,1.064-4.743,11.888-2.528-1.01.616-1.544-.047-.018a4.545,4.545,0,0,1-4.285.4,4.424,4.424,0,0,1-2.7-2.514" transform="translate(-17.298 -1.355)" fill="#fff"></path><path id="Tracé_212" data-name="Tracé 212" d="M183.739,29.248a5.753,5.753,0,0,1-1.145,3.885l-4.3,6.611-2.409-1.566,4.15-6.379q1.729-2.661-.213-3.926a2.3,2.3,0,0,0-2.215-.223,4.919,4.919,0,0,0-2.16,2.007l-3.764,5.788-2.408-1.567,4.313-6.633a3.348,3.348,0,0,0,.658-2.1,2.037,2.037,0,0,0-1.014-1.561,2.268,2.268,0,0,0-2.23-.218,5.082,5.082,0,0,0-2.172,2.043l-3.737,5.745-2.406-1.566,6.977-10.73,2.3,1.5-.838,1.288.043.029a4.508,4.508,0,0,1,2.055-.317,4.263,4.263,0,0,1,1.925.712,4.419,4.419,0,0,1,1.621,1.76,3.571,3.571,0,0,1,.283,2.243,5.336,5.336,0,0,1,2.376-.512,4.554,4.554,0,0,1,2.331.808,4.046,4.046,0,0,1,1.975,2.878" transform="translate(-18.863 -2.187)" fill="#fff"></path><path id="Tracé_213" data-name="Tracé 213" d="M197.123,41.2a4.892,4.892,0,0,1-1.629,3.64l-3.317,3.45a14.371,14.371,0,0,0-2.1,2.662l-1.872-1.8a8.23,8.23,0,0,1,1.113-1.413l-.036-.034a4.863,4.863,0,0,1-4.538-1.5,4.52,4.52,0,0,1-1.528-2.955,3.525,3.525,0,0,1,1.04-2.791,3.31,3.31,0,0,1,2.626-1.112,7.659,7.659,0,0,1,3.711,1.611,30.143,30.143,0,0,1,2.75,2.119l.349-.363a2.668,2.668,0,0,0,.906-1.907,2.521,2.521,0,0,0-.87-1.728A2.582,2.582,0,0,0,192,38.262a2.275,2.275,0,0,0-1.643.693L188.317,37a4.29,4.29,0,0,1,3.229-1.231,5.655,5.655,0,0,1,3.625,1.809,5.532,5.532,0,0,1,1.951,3.624m-7.43,1.42a4.361,4.361,0,0,0-1.879-.864,1.613,1.613,0,0,0-1.335.57,1.735,1.735,0,0,0-.525,1.4,2.476,2.476,0,0,0,.85,1.533A3.833,3.833,0,0,0,187.88,46a2.723,2.723,0,0,0,1.192.252,2.9,2.9,0,0,0,1.274-.328,5.517,5.517,0,0,0,1.264-1.04l.437-.454a26.984,26.984,0,0,0-2.353-1.807" transform="translate(-21.242 -4.147)" fill="#fff"></path><path id="Tracé_214" data-name="Tracé 214" d="M192.938,53.885l9.8-8.229,1.848,2.2-9.8,8.229Zm11.636-9.767,2.1-1.765,1.846,2.2-2.1,1.765Z" transform="translate(-22.371 -4.911)" fill="#fff"></path><path id="Tracé_215" data-name="Tracé 215" d="M212.75,61.564a5.628,5.628,0,0,1-2.6,3.189l-6.532,4.327-1.587-2.395,6.323-4.186q2.668-1.766,1.235-3.931a2.644,2.644,0,0,0-1.96-1.225,4.064,4.064,0,0,0-2.721.82l-5.924,3.923L197.4,59.689l10.672-7.066,1.5,2.268-1.386.919.029.042a4.541,4.541,0,0,1,3.754,2.108,4.425,4.425,0,0,1,.784,3.6" transform="translate(-22.888 -6.102)" fill="#fff"></path><path id="Tracé_216" data-name="Tracé 216" d="M213.7,85.257a2.521,2.521,0,0,0,1.784.352l1.058,2.751a5.038,5.038,0,0,1-3.517-.723,6.266,6.266,0,0,1-2.55-3.256,6.175,6.175,0,0,1-.382-3.4,5.643,5.643,0,0,1,1.5-2.873,8.345,8.345,0,0,1,3.116-2,7.718,7.718,0,0,1,3.438-.541,5.54,5.54,0,0,1,2.975,1.135,6.166,6.166,0,0,1,1.982,2.76,5.88,5.88,0,0,1,.233,3.865,5.7,5.7,0,0,1-2.236,3.062,10.344,10.344,0,0,1-2.672,1.407l-3.377-8.77a4.7,4.7,0,0,0-2.511,2.034,3.046,3.046,0,0,0-.1,2.56,3.207,3.207,0,0,0,1.252,1.638m5.838-6.786a3.983,3.983,0,0,0-2.7-.079l2.329,6.042a3.878,3.878,0,0,0,1.96-1.849,3.265,3.265,0,0,0-1.585-4.114" transform="translate(-24.349 -8.759)" fill="#fff"></path><path id="Tracé_217" data-name="Tracé 217" d="M217.7,98.785l-2.172.551a5.747,5.747,0,0,1-.616-1.507,4.062,4.062,0,0,1,.165-3.1,4.134,4.134,0,0,1,2.692-1.631l6.62-1.675-.526-2.078,2.125-.538.525,2.076,3.1-.785.7,2.784-3.1.786.613,2.418-2.125.538-.612-2.419-6.2,1.572a2.364,2.364,0,0,0-1.4.772,1.683,1.683,0,0,0-.125,1.408,2.6,2.6,0,0,0,.339.824" transform="translate(-24.894 -10.297)" fill="#fff"></path><rect id="Rectangle_40" data-name="Rectangle 40" width="17.94" height="2.872" transform="translate(191.772 96.678) rotate(-6.104)" fill="#fff"></rect><path id="Tracé_218" data-name="Tracé 218" d="M229.568,124.8a4.9,4.9,0,0,1-3.754,1.351l-4.786,0a14.372,14.372,0,0,0-3.375.331l0-2.595a8.217,8.217,0,0,1,1.788-.179v-.05a4.859,4.859,0,0,1-2.068-4.306,4.51,4.51,0,0,1,1.067-3.15,3.519,3.519,0,0,1,2.733-1.186,3.306,3.306,0,0,1,2.621,1.119,7.674,7.674,0,0,1,1.416,3.79,30.985,30.985,0,0,1,.379,3.451h.5a2.656,2.656,0,0,0,2-.67,2.518,2.518,0,0,0,.643-1.826,2.577,2.577,0,0,0-.608-1.814,2.278,2.278,0,0,0-1.636-.7l0-2.821a4.287,4.287,0,0,1,3.125,1.471,5.655,5.655,0,0,1,1.214,3.866,5.54,5.54,0,0,1-1.257,3.92m-6.176-4.366a4.378,4.378,0,0,0-.682-1.952,1.605,1.605,0,0,0-1.337-.566,1.729,1.729,0,0,0-1.373.593,2.472,2.472,0,0,0-.515,1.676,3.815,3.815,0,0,0,.216,1.285,2.724,2.724,0,0,0,.643,1.033,2.935,2.935,0,0,0,1.122.691,5.576,5.576,0,0,0,1.625.187h.63a27.33,27.33,0,0,0-.33-2.947" transform="translate(-25.204 -13.336)" fill="#fff"></path><path id="Tracé_219" data-name="Tracé 219" d="M223.552,156.836A5.754,5.754,0,0,1,219.5,157l-7.637-1.964.715-2.781,7.369,1.894q3.074.792,3.652-1.453a2.288,2.288,0,0,0-.5-2.17,4.9,4.9,0,0,0-2.59-1.407l-6.685-1.719.714-2.781,7.663,1.969a3.35,3.35,0,0,0,2.2-.046,2.027,2.027,0,0,0,1.155-1.46,2.266,2.266,0,0,0-.5-2.183,5.071,5.071,0,0,0-2.629-1.4l-6.637-1.708L216.5,137l12.4,3.186-.682,2.66-1.488-.383-.012.049a4.537,4.537,0,0,1,.955,1.846,4.269,4.269,0,0,1-.058,2.054,4.4,4.4,0,0,1-1.152,2.1,3.555,3.555,0,0,1-2.034.985,5.333,5.333,0,0,1,1.245,2.091,4.536,4.536,0,0,1-.022,2.465,4.034,4.034,0,0,1-2.1,2.789" transform="translate(-24.566 -15.885)" fill="#fff"></path><path id="Tracé_220" data-name="Tracé 220" d="M216.8,173.177a4.9,4.9,0,0,1-3.969-.391l-4.325-2.051a14.239,14.239,0,0,0-3.191-1.151l1.112-2.344a8.081,8.081,0,0,1,1.692.607l.023-.046a4.852,4.852,0,0,1-.021-4.777,4.511,4.511,0,0,1,2.315-2.388,3.525,3.525,0,0,1,2.978.1,3.311,3.311,0,0,1,1.887,2.137,7.684,7.684,0,0,1-.35,4.03,30.371,30.371,0,0,1-1.137,3.281l.454.216a2.665,2.665,0,0,0,2.1.255,2.509,2.509,0,0,0,1.362-1.375,2.576,2.576,0,0,0,.233-1.9,2.294,2.294,0,0,0-1.179-1.34l1.208-2.549a4.273,4.273,0,0,1,2.192,2.669,5.661,5.661,0,0,1-.563,4.013,5.537,5.537,0,0,1-2.818,3m-3.7-6.6a4.345,4.345,0,0,0,.221-2.055,1.6,1.6,0,0,0-.964-1.085,1.734,1.734,0,0,0-1.495-.053,2.466,2.466,0,0,0-1.183,1.292,3.763,3.763,0,0,0-.357,1.253,2.7,2.7,0,0,0,.138,1.209,2.935,2.935,0,0,0,.714,1.106,5.636,5.636,0,0,0,1.389.867l.569.27a27.39,27.39,0,0,0,.967-2.8" transform="translate(-23.806 -18.593)" fill="#fff"></path><path id="Tracé_221" data-name="Tracé 221" d="M210.351,186.548l-2.15-1.365a4.731,4.731,0,0,0,.625-.8,3.282,3.282,0,0,0,.508-2.8,4.57,4.57,0,0,0-2.093-2.418l-5.3-3.362,1.538-2.425,10.808,6.859-1.433,2.256-1.594-1.014-.027.043a4.07,4.07,0,0,1-.212,4.191,4.919,4.919,0,0,1-.674.827" transform="translate(-23.415 -20.104)" fill="#fff"></path><path id="Tracé_222" data-name="Tracé 222" d="M202.52,194.921a3.9,3.9,0,0,1-2.189.235l-.031.039,1.359,1.123-1.779,2.157-13.468-11.113,1.826-2.215,4.879,4.025.032-.039a3.807,3.807,0,0,1-.132-2.117,4.747,4.747,0,0,1,1.005-2.029,4.851,4.851,0,0,1,2.421-1.646,5.269,5.269,0,0,1,2.985.064,9.882,9.882,0,0,1,5.462,4.506,5.353,5.353,0,0,1,.63,2.937,4.864,4.864,0,0,1-1.155,2.706,4.6,4.6,0,0,1-1.846,1.368m.119-4.719a6.636,6.636,0,0,0-5.033-4.152,2.686,2.686,0,0,0-2.418,1.01,2.62,2.62,0,0,0-.5,2.509,6.8,6.8,0,0,0,5.062,4.177,2.624,2.624,0,0,0,2.357-.978,2.681,2.681,0,0,0,.534-2.566" transform="translate(-21.614 -21.236)" fill="#fff"></path><path id="Tracé_223" data-name="Tracé 223" d="M186.854,195.444a5.64,5.64,0,0,1,3.519,2.135l5.193,5.87-2.152,1.9-5.025-5.682q-2.12-2.395-4.064-.676a2.633,2.633,0,0,0-.942,2.109,4.068,4.068,0,0,0,1.19,2.581l4.707,5.324-2.153,1.9-8.478-9.588,2.037-1.8,1.1,1.246.038-.034a4.552,4.552,0,0,1,1.567-4.01,4.423,4.423,0,0,1,3.46-1.277" transform="translate(-20.714 -22.659)" fill="#fff"></path><path id="Tracé_224" data-name="Tracé 224" d="M170,210.223a2.518,2.518,0,0,0,.014,1.818l-2.482,1.591a5.032,5.032,0,0,1,0-3.593,6.268,6.268,0,0,1,2.675-3.153,6.143,6.143,0,0,1,3.258-1.056,5.64,5.64,0,0,1,3.117.89,8.354,8.354,0,0,1,2.584,2.652,7.686,7.686,0,0,1,1.221,3.259,5.544,5.544,0,0,1-.513,3.142,6.183,6.183,0,0,1-2.3,2.5,5.886,5.886,0,0,1-3.74,1.006,5.718,5.718,0,0,1-3.45-1.574,10.349,10.349,0,0,1-1.915-2.333l7.91-5.074a4.7,4.7,0,0,0-2.5-2.05,3.043,3.043,0,0,0-2.526.423A3.194,3.194,0,0,0,170,210.223m7.822,4.353a3.976,3.976,0,0,0-.468-2.665l-5.449,3.5a3.87,3.87,0,0,0,2.207,1.548,3.266,3.266,0,0,0,3.71-2.38" transform="translate(-19.387 -23.865)" fill="#fff"></path><path id="Tracé_225" data-name="Tracé 225" d="M152,229.157a4.885,4.885,0,0,1-2.583-3.039l-1.689-4.48a14.318,14.318,0,0,0-1.495-3.045l2.429-.914a8.306,8.306,0,0,1,.794,1.613l.049-.018a4.862,4.862,0,0,1,3.3-3.451,4.521,4.521,0,0,1,3.326-.108,3.521,3.521,0,0,1,2.07,2.142,3.31,3.31,0,0,1-.126,2.848,7.666,7.666,0,0,1-3.051,2.656,30.27,30.27,0,0,1-3.1,1.57l.178.472a2.667,2.667,0,0,0,1.331,1.639,2.522,2.522,0,0,0,1.933-.042,2.575,2.575,0,0,0,1.485-1.2,2.273,2.273,0,0,0,.083-1.782l2.642-.994a4.284,4.284,0,0,1-.278,3.444,5.674,5.674,0,0,1-3.193,2.495,5.542,5.542,0,0,1-4.111.2m1.915-7.317a4.37,4.37,0,0,0,1.59-1.324,1.609,1.609,0,0,0,.058-1.45,1.724,1.724,0,0,0-1.038-1.076,2.466,2.466,0,0,0-1.75.106,3.806,3.806,0,0,0-1.127.653,2.684,2.684,0,0,0-.739.965,2.9,2.9,0,0,0-.255,1.293,5.571,5.571,0,0,0,.4,1.587l.223.59a27,27,0,0,0,2.642-1.345" transform="translate(-16.955 -24.981)" fill="#fff"></path><path id="Tracé_226" data-name="Tracé 226" d="M141.452,221.055a5.643,5.643,0,0,1,2.018,3.587l1.643,7.663-2.808.6-1.59-7.414q-.671-3.131-3.208-2.586a2.639,2.639,0,0,0-1.856,1.377,4.051,4.051,0,0,0-.23,2.832l1.488,6.948-2.809.6-2.684-12.516,2.663-.569.349,1.626.048-.011a4.549,4.549,0,0,1,3.333-2.725,4.43,4.43,0,0,1,3.643.584" transform="translate(-15.237 -25.547)" fill="#fff"></path><path id="Tracé_227" data-name="Tracé 227" d="M115.828,223.392l3.371-.172,3.161,4.58.05,0,2.679-4.88,3.372-.172-4.216,6.851,4.542,5.948-3.346.171-2.83-4.016-.05,0-2.4,4.286-3.348.171,3.913-6.38Z" transform="translate(-13.43 -25.827)" fill="#fff"></path><path id="Tracé_228" data-name="Tracé 228" d="M96.909,234.392a5.235,5.235,0,0,1-1.763-2.027,5.45,5.45,0,0,1-.53-2.689l2.974.4a3.027,3.027,0,0,0,.583,2.1,2.613,2.613,0,0,0,1.8.991,2.72,2.72,0,0,0,2.493-.874,6.928,6.928,0,0,0,.877-6.568,2.718,2.718,0,0,0-2.176-1.5,2.44,2.44,0,0,0-2,.572,3.512,3.512,0,0,0-1.119,2.011l-3-.4a5.5,5.5,0,0,1,6.413-4.432,6.325,6.325,0,0,1,3.136,1.26,5.585,5.585,0,0,1,1.849,2.623,8.788,8.788,0,0,1-.951,7.118,5.6,5.6,0,0,1-2.473,2.046,6.336,6.336,0,0,1-3.357.391,6.256,6.256,0,0,1-2.763-1.018" transform="translate(-10.97 -25.73)" fill="#fff"></path><path id="Tracé_229" data-name="Tracé 229" d="M74.577,217.608a2.444,2.444,0,0,0-1.369,1.154l-2.764-.952a4.977,4.977,0,0,1,1.616-1.71,5.212,5.212,0,0,1,2.355-.8,6.545,6.545,0,0,1,2.817.372,5.712,5.712,0,0,1,2.268,1.381,5,5,0,0,1,1.248,2.176,5.171,5.171,0,0,1,2.345-.926,5.725,5.725,0,0,1,2.642.3,6.33,6.33,0,0,1,2.839,1.857,5.519,5.519,0,0,1,1.269,2.929,8.908,8.908,0,0,1-2.339,6.79,5.529,5.529,0,0,1-2.8,1.525,6.305,6.305,0,0,1-3.379-.285,5.8,5.8,0,0,1-2.269-1.381,4.841,4.841,0,0,1-1.257-2.153,5.122,5.122,0,0,1-2.317.921,6.1,6.1,0,0,1-5.627-2.579,5.771,5.771,0,0,1-.879-3.673,12.412,12.412,0,0,1,.667-2.942l8.576,2.955a4.8,4.8,0,0,0,.131-3.206,2.843,2.843,0,0,0-1.8-1.687,2.964,2.964,0,0,0-1.964-.064M75.8,226.37a4.137,4.137,0,0,0,1.753-2.035l-5.812-2a3.9,3.9,0,0,0,.093,2.67,2.825,2.825,0,0,0,1.721,1.5,2.762,2.762,0,0,0,2.245-.133m6.612-5.225a6.733,6.733,0,0,0-2.143,6.218,2.817,2.817,0,0,0,4.379,1.522,6.793,6.793,0,0,0,2.15-6.241,2.816,2.816,0,0,0-4.386-1.5" transform="translate(-7.995 -24.96)" fill="#fff"></path><path id="Tracé_230" data-name="Tracé 230" d="M66.474,212.078a5.625,5.625,0,0,1-.946,4.006l-3.985,6.746-2.473-1.46,3.855-6.53q1.63-2.754-.606-4.075a2.647,2.647,0,0,0-2.3-.246,4.067,4.067,0,0,0-2.089,1.926l-3.614,6.119-2.473-1.46,6.509-11.021,2.342,1.384-.844,1.432.043.026a4.544,4.544,0,0,1,4.3.256,4.428,4.428,0,0,1,2.281,2.9" transform="translate(-6.011 -23.895)" fill="#fff"></path><path id="Tracé_231" data-name="Tracé 231" d="M40.834,209.27l1.565-2.008a4.849,4.849,0,0,0,.732.7,3.282,3.282,0,0,0,2.734.774,4.561,4.561,0,0,0,2.608-1.849l3.857-4.948L54.6,203.7,46.727,213.8l-2.108-1.642,1.163-1.491-.038-.031a4.073,4.073,0,0,1-4.153-.616,4.8,4.8,0,0,1-.756-.751" transform="translate(-4.735 -23.414)" fill="#fff"></path><path id="Tracé_232" data-name="Tracé 232" d="M32.424,199.859a4.041,4.041,0,0,1,1.293-3.27l1.975,1.945a2.176,2.176,0,0,0-.745,1.653,3.208,3.208,0,0,0,2.291,2.486,1.3,1.3,0,0,0,1.174-.4,1.2,1.2,0,0,0,.385-.8,2,2,0,0,0-.247-.951q-.265-.522-.912-1.588a22.654,22.654,0,0,1-1.285-2.377,3.89,3.89,0,0,1-.3-1.957,3.437,3.437,0,0,1,1.09-2.058,3.348,3.348,0,0,1,3.029-.994,6.456,6.456,0,0,1,3.534,1.977,6.305,6.305,0,0,1,2.077,3.689,4.193,4.193,0,0,1-1.345,3.467l-2.083-2.05a2.32,2.32,0,0,0,.779-1.779,2.824,2.824,0,0,0-.967-1.837,2.929,2.929,0,0,0-1.512-.888,1.339,1.339,0,0,0-1.254.393,1.44,1.44,0,0,0-.463.94,2.206,2.206,0,0,0,.266,1.075q.29.586,1.011,1.756a21.451,21.451,0,0,1,1.166,2.139,3.4,3.4,0,0,1,.271,1.788,3.246,3.246,0,0,1-1.035,1.914,3.312,3.312,0,0,1-1.855.986,4.069,4.069,0,0,1-2.2-.277,6.68,6.68,0,0,1-2.2-1.5,5.817,5.817,0,0,1-1.934-3.478" transform="translate(-3.757 -22.204)" fill="#fff"></path><path id="Tracé_233" data-name="Tracé 233" d="M27.607,174.916l-1.471.974.028.042a3.805,3.805,0,0,1,2.139.47,4.671,4.671,0,0,1,1.686,1.56,4.9,4.9,0,0,1,.873,2.8,5.229,5.229,0,0,1-.924,2.849,8.879,8.879,0,0,1-2.589,2.5,8.9,8.9,0,0,1-3.313,1.408,5.355,5.355,0,0,1-2.985-.243,4.779,4.779,0,0,1-2.245-1.883,4.622,4.622,0,0,1-.777-2.13,3.879,3.879,0,0,1,.363-2.1l-.028-.041-5.67,3.756-1.589-2.395,14.956-9.907ZM22.5,184.705a5.58,5.58,0,0,0,3.192-1.087A5.575,5.575,0,0,0,27.94,181.1a2.684,2.684,0,0,0-.261-2.607,2.622,2.622,0,0,0-2.253-1.213,5.641,5.641,0,0,0-3.2,1.106,5.629,5.629,0,0,0-2.274,2.52,2.63,2.63,0,0,0,.247,2.54,2.692,2.692,0,0,0,2.3,1.258" transform="translate(-1.288 -20.011)" fill="#fff"></path><path id="Tracé_234" data-name="Tracé 234" d="M19.281,162.755a2.5,2.5,0,0,0-1.8-.24l-1.229-2.68a5.038,5.038,0,0,1,3.557.5,6.277,6.277,0,0,1,2.75,3.09,6.147,6.147,0,0,1,.591,3.374,5.638,5.638,0,0,1-1.316,2.961,8.331,8.331,0,0,1-2.987,2.19,7.712,7.712,0,0,1-3.4.754,5.558,5.558,0,0,1-3.04-.947,6.173,6.173,0,0,1-2.15-2.631,5.871,5.871,0,0,1-.475-3.843,5.705,5.705,0,0,1,2.04-3.195,10.337,10.337,0,0,1,2.578-1.573l3.921,8.542a4.71,4.71,0,0,0,2.378-2.186,3.039,3.039,0,0,0-.067-2.562,3.173,3.173,0,0,0-1.352-1.555m-5.4,7.135a3.977,3.977,0,0,0,2.7-.089l-2.7-5.885a3.859,3.859,0,0,0-1.841,1.969,3.265,3.265,0,0,0,1.839,4.006" transform="translate(-1.118 -18.518)" fill="#fff"></path><path id="Tracé_235" data-name="Tracé 235" d="M4.458,149.682a4.042,4.042,0,0,1,2.725-2.225l.777,2.661A2.173,2.173,0,0,0,6.5,151.2a2.62,2.62,0,0,0-.035,1.9,2.615,2.615,0,0,0,.826,1.387,1.3,1.3,0,0,0,1.219.221,1.2,1.2,0,0,0,.728-.515,2,2,0,0,0,.247-.952q.027-.585-.022-1.831a22.785,22.785,0,0,1,.038-2.7,3.87,3.87,0,0,1,.692-1.856,3.43,3.43,0,0,1,1.953-1.265,3.349,3.349,0,0,1,3.13.608,6.471,6.471,0,0,1,2.123,3.449,6.316,6.316,0,0,1,.015,4.235,4.2,4.2,0,0,1-2.864,2.371l-.819-2.805a2.325,2.325,0,0,0,1.547-1.173,2.837,2.837,0,0,0,.05-2.076,2.946,2.946,0,0,0-.888-1.513,1.344,1.344,0,0,0-1.286-.267,1.431,1.431,0,0,0-.862.592,2.234,2.234,0,0,0-.292,1.07q-.033.652.027,2.026a21.355,21.355,0,0,1-.026,2.435,3.411,3.411,0,0,1-.634,1.7A3.264,3.264,0,0,1,9.533,157.4a3.314,3.314,0,0,1-2.1-.042,4.086,4.086,0,0,1-1.788-1.316,6.716,6.716,0,0,1-1.193-2.38,5.828,5.828,0,0,1,.005-3.979" transform="translate(-0.476 -16.863)" fill="#fff"></path><path id="Tracé_236" data-name="Tracé 236" d="M10.793,127.328a2.505,2.505,0,0,0-1.613-.838l-.245-2.938a5.049,5.049,0,0,1,3.176,1.681,6.286,6.286,0,0,1,1.535,3.841,6.151,6.151,0,0,1-.591,3.374,5.624,5.624,0,0,1-2.245,2.337,8.338,8.338,0,0,1-3.552,1.044,7.731,7.731,0,0,1-3.451-.444,5.552,5.552,0,0,1-2.538-1.925,6.162,6.162,0,0,1-1.126-3.2A5.879,5.879,0,0,1,1,126.479a5.725,5.725,0,0,1,3-2.312,10.381,10.381,0,0,1,2.957-.6l.786,9.365a4.691,4.691,0,0,0,2.978-1.248,3.042,3.042,0,0,0,.808-2.431,3.189,3.189,0,0,0-.743-1.923m-7.5,4.876a3.964,3.964,0,0,0,2.573.833l-.542-6.452a3.886,3.886,0,0,0-2.4,1.225,3.267,3.267,0,0,0,.37,4.394" transform="translate(-0.013 -14.326)" fill="#fff"></path><path id="Tracé_237" data-name="Tracé 237" d="M13.49,108.642l-.2,3.371-4.9,2.643,0,.05,4.561,3.193-.2,3.37-6.351-4.936L0,120.2l.194-3.345,4.3-2.376,0-.05-4-2.856.193-3.345,5.918,4.583Z" transform="translate(0 -12.549)" fill="#fff"></path><path id="Tracé_238" data-name="Tracé 238" d="M3.719,93.914A5.338,5.338,0,0,1,6.4,92.564a8.917,8.917,0,0,1,3.6.074A8.9,8.9,0,0,1,13.337,94a5.282,5.282,0,0,1,1.922,2.287,4.869,4.869,0,0,1,.233,2.917,4.7,4.7,0,0,1-.951,2.054,3.784,3.784,0,0,1-1.732,1.225l-.011.05,6.194,1.278-.58,2.812-17.1-3.528.567-2.739,1.727.356.011-.05a3.908,3.908,0,0,1-1.186-1.852,4.572,4.572,0,0,1-.094-2.3,4.867,4.867,0,0,1,1.385-2.6m1.359,6.314a5.62,5.62,0,0,0,3.051,1.491,5.634,5.634,0,0,0,3.377-.164,2.622,2.622,0,0,0,1.641-1.965,2.684,2.684,0,0,0-.728-2.516,5.583,5.583,0,0,0-3.022-1.5,5.6,5.6,0,0,0-3.369.179,2.692,2.692,0,0,0-1.665,2.024,2.627,2.627,0,0,0,.715,2.45" transform="translate(-0.152 -10.715)" fill="#fff"></path><path id="Tracé_239" data-name="Tracé 239" d="M4.909,81.5,2.235,78.311l1.283-3.395L5.737,79.31Zm12.63.5a2.514,2.514,0,0,0-1.1-1.451l1.041-2.757a5.039,5.039,0,0,1,2.144,2.883,6.285,6.285,0,0,1-.265,4.128A6.168,6.168,0,0,1,17.379,87.6a5.642,5.642,0,0,1-3.03,1.144,8.336,8.336,0,0,1-3.657-.585,7.722,7.722,0,0,1-2.925-1.886A5.538,5.538,0,0,1,6.3,83.443a6.162,6.162,0,0,1,.359-3.379,5.89,5.89,0,0,1,2.4-3.039,5.722,5.722,0,0,1,3.708-.795,10.371,10.371,0,0,1,2.93.729l-3.32,8.792a4.715,4.715,0,0,0,3.228.155,3.047,3.047,0,0,0,1.774-1.849A3.2,3.2,0,0,0,17.54,82M8.666,83.177a3.98,3.98,0,0,0,1.965,1.86l2.286-6.058a3.874,3.874,0,0,0-2.694.073,3.266,3.266,0,0,0-1.558,4.125" transform="translate(-0.259 -8.686)" fill="#fff"></path><path id="Tracé_240" data-name="Tracé 240" d="M15.537,63.065l2.246,1.191a5.025,5.025,0,0,0-.56.843,3.28,3.28,0,0,0-.286,2.828,4.568,4.568,0,0,0,2.274,2.245l5.545,2.938-1.346,2.538L12.1,69.656l1.25-2.36,1.67.885.024-.044a4.069,4.069,0,0,1-.115-4.2,4.732,4.732,0,0,1,.607-.875" transform="translate(-1.403 -7.312)" fill="#fff"></path><path id="Tracé_241" data-name="Tracé 241" d="M15.187,58.457,12.878,56.97l1.556-2.414,2.308,1.488Zm12.77,8.231L17.2,59.754l1.558-2.414,10.759,6.935Z" transform="translate(-1.493 -6.326)" fill="#fff"></path><path id="Tracé_242" data-name="Tracé 242" d="M35.35,53.408a2.5,2.5,0,0,0-.58-1.722L36.628,49.4a5.025,5.025,0,0,1,1.122,3.412A6.263,6.263,0,0,1,36.2,56.642a6.166,6.166,0,0,1-2.764,2.024,5.644,5.644,0,0,1-3.237.129,8.341,8.341,0,0,1-3.283-1.712,7.7,7.7,0,0,1-2.179-2.711,5.556,5.556,0,0,1-.5-3.145,6.2,6.2,0,0,1,1.409-3.092,5.877,5.877,0,0,1,3.237-2.126,5.711,5.711,0,0,1,3.768.416,10.383,10.383,0,0,1,2.55,1.617l-5.927,7.293A4.709,4.709,0,0,0,32.285,56.5a3.048,3.048,0,0,0,2.268-1.193,3.192,3.192,0,0,0,.8-1.9M26.561,51.72A3.973,3.973,0,0,0,27.837,54.1l4.083-5.026A3.882,3.882,0,0,0,29.34,48.3a3.266,3.266,0,0,0-2.779,3.422" transform="translate(-2.804 -5.317)" fill="#fff"></path><path id="Tracé_243" data-name="Tracé 243" d="M41.9,33.248a5.643,5.643,0,0,1,3.543,2.094l5.256,5.812-2.131,1.927-5.087-5.624q-2.147-2.372-4.071-.632a2.638,2.638,0,0,0-.918,2.121,4.062,4.062,0,0,0,1.217,2.567l4.768,5.27-2.131,1.926-8.587-9.492,2.018-1.826,1.116,1.233.038-.034a4.539,4.539,0,0,1,1.521-4.027A4.427,4.427,0,0,1,41.9,33.248" transform="translate(-3.914 -3.853)" fill="#fff"></path><path id="Tracé_244" data-name="Tracé 244" d="M54.786,23.245a5.22,5.22,0,0,1,2.659.373A5.422,5.422,0,0,1,59.61,25.3l-2.5,1.651a3.036,3.036,0,0,0-1.818-1.2,2.622,2.622,0,0,0-2.008.433,2.722,2.722,0,0,0-1.308,2.3,5.681,5.681,0,0,0,1.118,3.23,5.681,5.681,0,0,0,2.529,2.3,2.723,2.723,0,0,0,2.627-.3,2.445,2.445,0,0,0,1.13-1.742,3.528,3.528,0,0,0-.474-2.253l2.523-1.666A5.5,5.5,0,0,1,59.5,35.605a6.32,6.32,0,0,1-3.191,1.109,5.561,5.561,0,0,1-3.116-.766,7.864,7.864,0,0,1-2.62-2.574,7.868,7.868,0,0,1-1.333-3.42,5.555,5.555,0,0,1,.522-3.167,6.312,6.312,0,0,1,2.275-2.5,6.222,6.222,0,0,1,2.753-1.046" transform="translate(-5.704 -2.691)" fill="#fff"></path><path id="Tracé_245" data-name="Tracé 245" d="M73.372,25.021a2.5,2.5,0,0,0,.237-1.8l2.678-1.235a5.041,5.041,0,0,1-.5,3.558A6.274,6.274,0,0,1,72.707,28.3a6.16,6.16,0,0,1-3.372.6,5.646,5.646,0,0,1-2.965-1.312A8.35,8.35,0,0,1,64.176,24.6a7.724,7.724,0,0,1-.762-3.395,5.559,5.559,0,0,1,.942-3.042,6.179,6.179,0,0,1,2.626-2.155,5.889,5.889,0,0,1,3.844-.483,5.723,5.723,0,0,1,3.2,2.034A10.373,10.373,0,0,1,75.6,20.137l-8.535,3.936a4.7,4.7,0,0,0,2.193,2.375,3.042,3.042,0,0,0,2.56-.072,3.187,3.187,0,0,0,1.552-1.354m-7.147-5.388a4,4,0,0,0,.095,2.7L72.2,19.624a3.882,3.882,0,0,0-1.972-1.838,3.266,3.266,0,0,0-4,1.847" transform="translate(-7.353 -1.785)" fill="#fff"></path><path id="Tracé_246" data-name="Tracé 246" d="M86.53,10.173a4.043,4.043,0,0,1,2.23,2.718l-2.658.782a2.182,2.182,0,0,0-1.085-1.454,3.206,3.206,0,0,0-3.286.8,1.3,1.3,0,0,0-.217,1.22,1.186,1.186,0,0,0,.516.728,1.99,1.99,0,0,0,.952.245q.582.025,1.831-.026a22.744,22.744,0,0,1,2.7.033,3.876,3.876,0,0,1,1.858.687,3.432,3.432,0,0,1,1.27,1.951,3.351,3.351,0,0,1-.6,3.132,6.474,6.474,0,0,1-3.445,2.13,6.32,6.32,0,0,1-4.235.024,4.193,4.193,0,0,1-2.375-2.859l2.8-.826A2.334,2.334,0,0,0,83.962,21a2.842,2.842,0,0,0,2.075.046,2.953,2.953,0,0,0,1.511-.891,1.342,1.342,0,0,0,.264-1.286,1.447,1.447,0,0,0-.593-.863,2.234,2.234,0,0,0-1.071-.289q-.652-.031-2.025.032a21.223,21.223,0,0,1-2.436-.019,3.425,3.425,0,0,1-1.695-.63,3.256,3.256,0,0,1-1.17-1.836,3.338,3.338,0,0,1,.038-2.1,4.089,4.089,0,0,1,1.313-1.791,6.708,6.708,0,0,1,2.377-1.2,5.828,5.828,0,0,1,3.981,0" transform="translate(-9.122 -1.139)" fill="#fff"></path></g></g></svg> 